<?xml version="1.0" encoding="UTF-8" standalone="no"?>
<!-- Created with Inkscape (http://www.inkscape.org/) -->

<svg
        xmlns:dc="http://purl.org/dc/elements/1.1/"
        xmlns:cc="http://creativecommons.org/ns#"
        xmlns:rdf="http://www.w3.org/1999/02/22-rdf-syntax-ns#"
        xmlns="http://www.w3.org/2000/svg"
        xmlns:sodipodi="http://sodipodi.sourceforge.net/DTD/sodipodi-0.dtd"
        xmlns:inkscape="http://www.inkscape.org/namespaces/inkscape"
        id="svg2"
        version="1.1"
        inkscape:version="0.91 r13725"
        xml:space="preserve"
        width="457.22638"
        height="321.49738"
        viewBox="0 0 457.22638 321.49738"
        sodipodi:docname="dePHPend.svg"><metadata
     id="metadata8"><rdf:RDF><cc:Work
         rdf:about=""><dc:format>image/svg+xml</dc:format><dc:type
           rdf:resource="http://purl.org/dc/dcmitype/StillImage" /><dc:title></dc:title></cc:Work></rdf:RDF></metadata><defs
     id="defs6"><clipPath
       clipPathUnits="userSpaceOnUse"
       id="clipPath16"><path
         d="M 0,459 682,459 682,0 0,0 0,459 Z"
         id="path18"
         inkscape:connector-curvature="0" /></clipPath></defs><sodipodi:namedview
     pagecolor="#ffffff"
     bordercolor="#666666"
     borderopacity="1"
     objecttolerance="10"
     gridtolerance="10"
     guidetolerance="10"
     inkscape:pageopacity="0"
     inkscape:pageshadow="2"
     inkscape:window-width="1366"
     inkscape:window-height="704"
     id="namedview4"
     showgrid="false"
     inkscape:zoom="0.35894428"
     inkscape:cx="209.70175"
     inkscape:cy="130.56387"
     inkscape:window-x="0"
     inkscape:window-y="27"
     inkscape:window-maximized="1"
     inkscape:current-layer="g10"
     fit-margin-top="0"
     fit-margin-left="0"
     fit-margin-right="0"
     fit-margin-bottom="0" /><g
     id="g10"
     inkscape:groupmode="layer"
     inkscape:label="dePHPend"
     transform="matrix(1.25,0,0,-1.25,-216.54825,477.8085)"><g
       id="g12"
       inkscape:export-xdpi="90"
       inkscape:export-ydpi="90"><g
         id="g14"
         clip-path="url(#clipPath16)"><g
           id="g20"
           transform="translate(347.6057,286.5378)"><path
             d="m 0,0 c 0,52.859 42.849,95.709 95.705,95.709 52.859,0 95.709,-42.85 95.709,-95.709 0,-52.856 -42.85,-95.705 -95.709,-95.705 C 42.849,-95.705 0,-52.856 0,0"
             style="fill:#8892bf;fill-opacity:1;fill-rule:nonzero;stroke:none"
             id="path22"
             inkscape:connector-curvature="0" /></g><g
           id="g24"
           transform="translate(346.3089,149.1779)"><path
             d="m 0,0 0,35.294 0,121.003 c 0,23.701 19.212,42.913 42.91,42.913 l 79.889,0 0,-42.868 c 0,-41.729 -33.829,-75.558 -75.557,-75.558 l -17.504,0 -6.784,-85.981 c -1.218,-12.297 7.153,-10.912 9.813,-10.912 l 25.42,0 0,-8.02 -34.058,0 C 10.801,-24.129 0,-13.325 0,0"
             style="fill:#262261;fill-opacity:1;fill-rule:nonzero;stroke:none"
             id="path26"
             inkscape:connector-curvature="0" /></g><g
           id="g28"
           transform="translate(421.2426,256.6021)"><path
             d="m 0,0 18.866,-64.883 0,-0.837 c 1.062,-0.039 2.131,-0.055 3.2,-0.055 1.063,0 2.129,0.016 3.178,0.055 15.265,0.494 29.62,4.562 42.262,11.405 6.087,3.286 11.776,7.217 16.978,11.694 20.387,17.547 33.293,43.544 33.293,72.549 0,10.177 -1.588,19.989 -4.535,29.186 -1.981,6.211 -4.585,12.152 -7.741,17.739 -0.8,1.424 -1.637,2.825 -2.503,4.198 -2.384,3.763 -5.024,7.351 -7.897,10.737 l -76.235,0 L 0,0 Z"
             style="fill:#262261;fill-opacity:1;fill-rule:nonzero;stroke:none"
             id="path30"
             inkscape:connector-curvature="0" /></g><g
           id="g32"
           transform="translate(511.3994,276.6049)"><path
             d="m 0,0 c 0,-26.117 -21.174,-47.291 -47.291,-47.291 -26.118,0 -47.291,21.174 -47.291,47.291 l 0,47.291 47.291,0 C -21.174,47.291 0,26.118 0,0"
             style="fill:#8892bf;fill-opacity:1;fill-rule:nonzero;stroke:none"
             id="path34"
             inkscape:connector-curvature="0" /></g><g
           id="g36"
           transform="translate(336.5596,125.088)" /><g
           id="g38"
           transform="translate(336.5596,139.0284)" /><g
           id="g40"
           transform="translate(182.1886,133.9433)"><path
             d="m 0,0 5.398,0 c 1.421,0 2.621,0.513 3.6,1.539 0.978,1.025 1.468,2.233 1.468,3.623 l 0,31.066 c 0,1.419 -0.498,2.635 -1.492,3.646 -0.995,1.01 -2.186,1.515 -3.576,1.515 L 0,41.389 0,0 Z m 19.179,5.352 c 0,-3.915 -1.373,-7.262 -4.12,-10.04 -2.746,-2.779 -6.061,-4.167 -9.945,-4.167 l -14.064,0 0,59.383 14.064,0 c 3.915,0 7.238,-1.389 9.969,-4.167 2.73,-2.778 4.096,-6.109 4.096,-9.992 l 0,-31.017 z"
             style="fill:#262261;fill-opacity:1;fill-rule:nonzero;stroke:none"
             id="path42"
             inkscape:connector-curvature="0" /></g><g
           id="g44"
           transform="translate(209.2272,125.0879)"><path
             d="m 0,0 0,59.384 25.478,0 0,-8.997 -16.528,0 0,-16.197 12.076,0 0,-8.997 -12.076,0 0,-16.195 16.528,0 L 25.478,0 0,0 Z"
             style="fill:#262261;fill-opacity:1;fill-rule:nonzero;stroke:none"
             id="path46"
             inkscape:connector-curvature="0" /></g><g
           id="g48"
           transform="translate(260.3239,170.123)"><path
             d="m 0,0 c 0,1.547 -0.466,2.794 -1.397,3.741 -0.932,0.947 -2.171,1.421 -3.718,1.421 l -5.398,0 0,-18.99 5.398,0 c 1.421,0 2.629,0.505 3.623,1.515 0.994,1.01 1.492,2.226 1.492,3.647 L 0,0 Z m -5.352,14.302 c 4.357,0 7.83,-1.373 10.419,-4.12 C 7.466,7.561 8.666,4.215 8.666,0.143 l 0,-8.62 c 0,-3.915 -1.366,-7.261 -4.096,-10.039 -2.732,-2.778 -6.038,-4.168 -9.922,-4.168 l -5.161,0 0,-22.351 -8.95,0 0,59.337 14.111,0 z"
             style="fill:#8892bf;fill-opacity:1;fill-rule:nonzero;stroke:none"
             id="path50"
             inkscape:connector-curvature="0" /></g><g
           id="g52"
           transform="translate(285.0895,150.2334)"><path
             d="m 0,0 0,-25.146 -8.95,0 0,59.337 8.95,0 0,-25.193 10.797,0 0,25.193 8.951,0 0,-59.337 -8.951,0 L 10.797,0 0,0 Z"
             style="fill:#8892bf;fill-opacity:1;fill-rule:nonzero;stroke:none"
             id="path54"
             inkscape:connector-curvature="0" /></g><g
           id="g56"
           transform="translate(332.3019,170.123)"><path
             d="m 0,0 c 0,1.547 -0.466,2.794 -1.396,3.741 -0.932,0.947 -2.172,1.421 -3.718,1.421 l -5.399,0 0,-18.99 5.399,0 c 1.421,0 2.628,0.505 3.623,1.515 0.994,1.01 1.491,2.226 1.491,3.647 L 0,0 Z m -5.351,14.302 c 4.357,0 7.83,-1.373 10.418,-4.12 C 7.466,7.561 8.666,4.215 8.666,0.143 l 0,-8.62 c 0,-3.915 -1.366,-7.261 -4.096,-10.039 -2.731,-2.778 -6.038,-4.168 -9.921,-4.168 l -5.162,0 0,-22.351 -8.95,0 0,59.337 14.112,0 z"
             style="fill:#8892bf;fill-opacity:1;fill-rule:nonzero;stroke:none"
             id="path58"
             inkscape:connector-curvature="0" /></g><g
           id="g60"
           transform="translate(373.0177,275.8553)"><path
             d="m 0,0 c 0,3.956 3.205,7.162 7.161,7.162 l 4.955,0 0,-4.956 c 0,-3.956 -3.206,-7.162 -7.158,-7.162 L 0,-4.956 0,0 Z"
             style="fill:#ffffff;fill-opacity:1;fill-rule:nonzero;stroke:none"
             id="path62"
             inkscape:connector-curvature="0" /></g><g
           id="g64"
           transform="translate(381.1699,125.5332)"><path
             d="m 0,0 0,56.541 24.258,0 0,-8.566 -15.737,0 0,-15.421 11.499,0 0,-8.567 -11.499,0 0,-15.421 15.737,0 L 24.258,0 0,0 Z"
             style="fill:#262261;fill-opacity:1;fill-rule:nonzero;stroke:none"
             id="path66"
             inkscape:connector-curvature="0" /></g><g
           id="g68"
           transform="translate(420.8564,182.0742)"><path
             d="m 0,0 11.309,-37.999 0,37.999 8.521,0 0,-56.541 -9.152,0 -11.724,36.206 0,-36.206 -8.521,0 L -9.567,0 0,0 Z"
             style="fill:#262261;fill-opacity:1;fill-rule:nonzero;stroke:none"
             id="path70"
             inkscape:connector-curvature="0" /></g><g
           id="g72"
           transform="translate(456.8271,133.9648)"><path
             d="m 0,0 5.141,0 c 1.352,0 2.494,0.488 3.426,1.465 0.932,0.976 1.398,2.127 1.398,3.45 l 0,29.578 c 0,1.353 -0.474,2.509 -1.42,3.472 -0.947,0.961 -2.082,1.442 -3.404,1.442 L 0,39.407 0,0 Z m 18.262,5.095 c 0,-3.728 -1.308,-6.914 -3.923,-9.559 C 11.724,-7.109 8.567,-8.432 4.87,-8.432 l -13.391,0 0,56.541 13.391,0 c 3.727,0 6.891,-1.323 9.491,-3.967 2.6,-2.646 3.901,-5.817 3.901,-9.514 l 0,-29.533 z"
             style="fill:#262261;fill-opacity:1;fill-rule:nonzero;stroke:none"
             id="path74"
             inkscape:connector-curvature="0" /></g></g></g></g></svg>